<mxfile host="app.diagrams.net" modified="2023-03-30T02:26:20.558Z" agent="Mozilla/5.0 (Windows NT 10.0; WOW64) AppleWebKit/537.36 (KHTML, like Gecko) Chrome/86.0.4240.198 Safari/537.36" etag="93sxISXxIxAHgvNx-Gij" version="21.1.1" type="github">
  <diagram id="C5RBs43oDa-KdzZeNtuy" name="Page-1">
    <mxGraphModel dx="989" dy="523" grid="1" gridSize="10" guides="1" tooltips="1" connect="1" arrows="1" fold="1" page="1" pageScale="1" pageWidth="827" pageHeight="1169" math="0" shadow="0">
      <root>
        <mxCell id="WIyWlLk6GJQsqaUBKTNV-0" />
        <mxCell id="WIyWlLk6GJQsqaUBKTNV-1" parent="WIyWlLk6GJQsqaUBKTNV-0" />
        <mxCell id="WIyWlLk6GJQsqaUBKTNV-2" value="" style="rounded=0;html=1;jettySize=auto;orthogonalLoop=1;fontSize=11;endArrow=block;endFill=0;endSize=8;strokeWidth=1;shadow=0;labelBackgroundColor=none;edgeStyle=orthogonalEdgeStyle;" parent="WIyWlLk6GJQsqaUBKTNV-1" source="WIyWlLk6GJQsqaUBKTNV-3" target="WIyWlLk6GJQsqaUBKTNV-6" edge="1">
          <mxGeometry relative="1" as="geometry" />
        </mxCell>
        <mxCell id="WIyWlLk6GJQsqaUBKTNV-3" value="scm同步商品" style="rounded=1;whiteSpace=wrap;html=1;fontSize=12;glass=0;strokeWidth=1;shadow=0;" parent="WIyWlLk6GJQsqaUBKTNV-1" vertex="1">
          <mxGeometry x="160" y="80" width="120" height="40" as="geometry" />
        </mxCell>
        <mxCell id="WIyWlLk6GJQsqaUBKTNV-4" value="存在" style="rounded=0;html=1;jettySize=auto;orthogonalLoop=1;fontSize=11;endArrow=block;endFill=0;endSize=8;strokeWidth=1;shadow=0;labelBackgroundColor=none;edgeStyle=orthogonalEdgeStyle;" parent="WIyWlLk6GJQsqaUBKTNV-1" source="WIyWlLk6GJQsqaUBKTNV-6" edge="1">
          <mxGeometry y="20" relative="1" as="geometry">
            <mxPoint as="offset" />
            <mxPoint x="220" y="290" as="targetPoint" />
          </mxGeometry>
        </mxCell>
        <mxCell id="WIyWlLk6GJQsqaUBKTNV-5" value="不存在" style="edgeStyle=orthogonalEdgeStyle;rounded=0;html=1;jettySize=auto;orthogonalLoop=1;fontSize=11;endArrow=block;endFill=0;endSize=8;strokeWidth=1;shadow=0;labelBackgroundColor=none;" parent="WIyWlLk6GJQsqaUBKTNV-1" source="WIyWlLk6GJQsqaUBKTNV-6" target="WIyWlLk6GJQsqaUBKTNV-7" edge="1">
          <mxGeometry y="10" relative="1" as="geometry">
            <mxPoint as="offset" />
          </mxGeometry>
        </mxCell>
        <mxCell id="WIyWlLk6GJQsqaUBKTNV-6" value="根据款号判断" style="rhombus;whiteSpace=wrap;html=1;shadow=0;fontFamily=Helvetica;fontSize=12;align=center;strokeWidth=1;spacing=6;spacingTop=-4;" parent="WIyWlLk6GJQsqaUBKTNV-1" vertex="1">
          <mxGeometry x="170" y="170" width="100" height="80" as="geometry" />
        </mxCell>
        <mxCell id="hFy0Fky4flLzkHBf1MpJ-3" value="" style="edgeStyle=orthogonalEdgeStyle;rounded=0;orthogonalLoop=1;jettySize=auto;html=1;labelBackgroundColor=none;endArrow=block;endFill=0;endSize=8;strokeWidth=1;shadow=0;entryX=0;entryY=0.5;entryDx=0;entryDy=0;" edge="1" parent="WIyWlLk6GJQsqaUBKTNV-1" source="WIyWlLk6GJQsqaUBKTNV-7" target="hFy0Fky4flLzkHBf1MpJ-5">
          <mxGeometry relative="1" as="geometry">
            <mxPoint x="540" y="210" as="targetPoint" />
          </mxGeometry>
        </mxCell>
        <mxCell id="WIyWlLk6GJQsqaUBKTNV-7" value="插入商品信息和图片&lt;br&gt;图片默认为设计图" style="rounded=1;whiteSpace=wrap;html=1;fontSize=12;glass=0;strokeWidth=1;shadow=0;" parent="WIyWlLk6GJQsqaUBKTNV-1" vertex="1">
          <mxGeometry x="340" y="190" width="120" height="40" as="geometry" />
        </mxCell>
        <mxCell id="WIyWlLk6GJQsqaUBKTNV-8" value="" style="rounded=0;html=1;jettySize=auto;orthogonalLoop=1;fontSize=11;endArrow=block;endFill=0;endSize=8;strokeWidth=1;shadow=0;labelBackgroundColor=none;edgeStyle=orthogonalEdgeStyle;" parent="WIyWlLk6GJQsqaUBKTNV-1" source="hFy0Fky4flLzkHBf1MpJ-21" edge="1">
          <mxGeometry x="0.3333" y="20" relative="1" as="geometry">
            <mxPoint as="offset" />
            <mxPoint x="220" y="350" as="sourcePoint" />
            <mxPoint x="220" y="410" as="targetPoint" />
          </mxGeometry>
        </mxCell>
        <mxCell id="hFy0Fky4flLzkHBf1MpJ-0" value="修改当前商品的基础信息，删除原图片，插入新图片" style="rounded=1;whiteSpace=wrap;html=1;" vertex="1" parent="WIyWlLk6GJQsqaUBKTNV-1">
          <mxGeometry x="160" y="290" width="120" height="60" as="geometry" />
        </mxCell>
        <mxCell id="hFy0Fky4flLzkHBf1MpJ-7" value="" style="edgeStyle=orthogonalEdgeStyle;rounded=0;orthogonalLoop=1;jettySize=auto;html=1;" edge="1" parent="WIyWlLk6GJQsqaUBKTNV-1" source="hFy0Fky4flLzkHBf1MpJ-5">
          <mxGeometry relative="1" as="geometry">
            <mxPoint x="644" y="210" as="targetPoint" />
          </mxGeometry>
        </mxCell>
        <mxCell id="hFy0Fky4flLzkHBf1MpJ-10" value="存在" style="edgeLabel;html=1;align=center;verticalAlign=middle;resizable=0;points=[];" vertex="1" connectable="0" parent="hFy0Fky4flLzkHBf1MpJ-7">
          <mxGeometry x="-0.2619" y="1" relative="1" as="geometry">
            <mxPoint as="offset" />
          </mxGeometry>
        </mxCell>
        <mxCell id="hFy0Fky4flLzkHBf1MpJ-9" value="" style="edgeStyle=orthogonalEdgeStyle;rounded=0;orthogonalLoop=1;jettySize=auto;html=1;" edge="1" parent="WIyWlLk6GJQsqaUBKTNV-1" source="hFy0Fky4flLzkHBf1MpJ-5" target="hFy0Fky4flLzkHBf1MpJ-8">
          <mxGeometry relative="1" as="geometry" />
        </mxCell>
        <mxCell id="hFy0Fky4flLzkHBf1MpJ-11" value="不存在" style="edgeLabel;html=1;align=center;verticalAlign=middle;resizable=0;points=[];" vertex="1" connectable="0" parent="hFy0Fky4flLzkHBf1MpJ-9">
          <mxGeometry x="-0.2381" relative="1" as="geometry">
            <mxPoint as="offset" />
          </mxGeometry>
        </mxCell>
        <mxCell id="hFy0Fky4flLzkHBf1MpJ-5" value="标签类型" style="rhombus;whiteSpace=wrap;html=1;" vertex="1" parent="WIyWlLk6GJQsqaUBKTNV-1">
          <mxGeometry x="504" y="170" width="80" height="80" as="geometry" />
        </mxCell>
        <mxCell id="hFy0Fky4flLzkHBf1MpJ-8" value="创建标签类型" style="whiteSpace=wrap;html=1;" vertex="1" parent="WIyWlLk6GJQsqaUBKTNV-1">
          <mxGeometry x="499" y="80" width="90" height="40" as="geometry" />
        </mxCell>
        <mxCell id="hFy0Fky4flLzkHBf1MpJ-14" value="" style="edgeStyle=orthogonalEdgeStyle;rounded=0;orthogonalLoop=1;jettySize=auto;html=1;entryX=0;entryY=0.5;entryDx=0;entryDy=0;" edge="1" parent="WIyWlLk6GJQsqaUBKTNV-1" source="hFy0Fky4flLzkHBf1MpJ-12" target="hFy0Fky4flLzkHBf1MpJ-27">
          <mxGeometry relative="1" as="geometry">
            <mxPoint x="794" y="80" as="targetPoint" />
          </mxGeometry>
        </mxCell>
        <mxCell id="hFy0Fky4flLzkHBf1MpJ-20" value="存在" style="edgeLabel;html=1;align=center;verticalAlign=middle;resizable=0;points=[];" vertex="1" connectable="0" parent="hFy0Fky4flLzkHBf1MpJ-14">
          <mxGeometry x="-0.2708" y="1" relative="1" as="geometry">
            <mxPoint as="offset" />
          </mxGeometry>
        </mxCell>
        <mxCell id="hFy0Fky4flLzkHBf1MpJ-17" value="" style="edgeStyle=orthogonalEdgeStyle;rounded=0;orthogonalLoop=1;jettySize=auto;html=1;" edge="1" parent="WIyWlLk6GJQsqaUBKTNV-1" source="hFy0Fky4flLzkHBf1MpJ-12" target="hFy0Fky4flLzkHBf1MpJ-16">
          <mxGeometry relative="1" as="geometry" />
        </mxCell>
        <mxCell id="hFy0Fky4flLzkHBf1MpJ-19" value="不存在" style="edgeLabel;html=1;align=center;verticalAlign=middle;resizable=0;points=[];" vertex="1" connectable="0" parent="hFy0Fky4flLzkHBf1MpJ-17">
          <mxGeometry x="-0.179" relative="1" as="geometry">
            <mxPoint as="offset" />
          </mxGeometry>
        </mxCell>
        <mxCell id="hFy0Fky4flLzkHBf1MpJ-12" value="标签值" style="rhombus;whiteSpace=wrap;html=1;" vertex="1" parent="WIyWlLk6GJQsqaUBKTNV-1">
          <mxGeometry x="644" y="170" width="80" height="80" as="geometry" />
        </mxCell>
        <mxCell id="hFy0Fky4flLzkHBf1MpJ-16" value="创建标签值" style="whiteSpace=wrap;html=1;" vertex="1" parent="WIyWlLk6GJQsqaUBKTNV-1">
          <mxGeometry x="639" y="80" width="90" height="40" as="geometry" />
        </mxCell>
        <mxCell id="hFy0Fky4flLzkHBf1MpJ-18" value="绑定" style="rounded=0;whiteSpace=wrap;html=1;" vertex="1" parent="WIyWlLk6GJQsqaUBKTNV-1">
          <mxGeometry x="900" y="185" width="80" height="50" as="geometry" />
        </mxCell>
        <mxCell id="hFy0Fky4flLzkHBf1MpJ-23" value="" style="rounded=0;html=1;jettySize=auto;orthogonalLoop=1;fontSize=11;endArrow=block;endFill=0;endSize=8;strokeWidth=1;shadow=0;labelBackgroundColor=none;edgeStyle=orthogonalEdgeStyle;" edge="1" parent="WIyWlLk6GJQsqaUBKTNV-1" target="hFy0Fky4flLzkHBf1MpJ-21">
          <mxGeometry x="0.3333" y="20" relative="1" as="geometry">
            <mxPoint as="offset" />
            <mxPoint x="220" y="350" as="sourcePoint" />
            <mxPoint x="220" y="410" as="targetPoint" />
          </mxGeometry>
        </mxCell>
        <mxCell id="hFy0Fky4flLzkHBf1MpJ-25" value="" style="edgeStyle=orthogonalEdgeStyle;rounded=0;orthogonalLoop=1;jettySize=auto;html=1;entryX=0.5;entryY=1;entryDx=0;entryDy=0;" edge="1" parent="WIyWlLk6GJQsqaUBKTNV-1" source="hFy0Fky4flLzkHBf1MpJ-21" target="hFy0Fky4flLzkHBf1MpJ-5">
          <mxGeometry relative="1" as="geometry">
            <mxPoint x="340" y="430" as="targetPoint" />
          </mxGeometry>
        </mxCell>
        <mxCell id="hFy0Fky4flLzkHBf1MpJ-26" value="是" style="edgeLabel;html=1;align=center;verticalAlign=middle;resizable=0;points=[];" vertex="1" connectable="0" parent="hFy0Fky4flLzkHBf1MpJ-25">
          <mxGeometry x="-0.194" y="1" relative="1" as="geometry">
            <mxPoint as="offset" />
          </mxGeometry>
        </mxCell>
        <mxCell id="hFy0Fky4flLzkHBf1MpJ-21" value="标签属性是否有变动" style="rhombus;whiteSpace=wrap;html=1;" vertex="1" parent="WIyWlLk6GJQsqaUBKTNV-1">
          <mxGeometry x="180" y="390" width="80" height="80" as="geometry" />
        </mxCell>
        <mxCell id="hFy0Fky4flLzkHBf1MpJ-28" value="" style="edgeStyle=orthogonalEdgeStyle;rounded=0;orthogonalLoop=1;jettySize=auto;html=1;" edge="1" parent="WIyWlLk6GJQsqaUBKTNV-1" source="hFy0Fky4flLzkHBf1MpJ-27" target="hFy0Fky4flLzkHBf1MpJ-18">
          <mxGeometry relative="1" as="geometry" />
        </mxCell>
        <mxCell id="hFy0Fky4flLzkHBf1MpJ-30" value="" style="edgeStyle=orthogonalEdgeStyle;rounded=0;orthogonalLoop=1;jettySize=auto;html=1;" edge="1" parent="WIyWlLk6GJQsqaUBKTNV-1" source="hFy0Fky4flLzkHBf1MpJ-27" target="hFy0Fky4flLzkHBf1MpJ-29">
          <mxGeometry relative="1" as="geometry" />
        </mxCell>
        <mxCell id="hFy0Fky4flLzkHBf1MpJ-27" value="是否绑定款号" style="rhombus;whiteSpace=wrap;html=1;" vertex="1" parent="WIyWlLk6GJQsqaUBKTNV-1">
          <mxGeometry x="780" y="170" width="80" height="80" as="geometry" />
        </mxCell>
        <mxCell id="hFy0Fky4flLzkHBf1MpJ-32" value="" style="edgeStyle=orthogonalEdgeStyle;rounded=0;orthogonalLoop=1;jettySize=auto;html=1;entryX=0.5;entryY=0;entryDx=0;entryDy=0;" edge="1" parent="WIyWlLk6GJQsqaUBKTNV-1" source="hFy0Fky4flLzkHBf1MpJ-29" target="hFy0Fky4flLzkHBf1MpJ-18">
          <mxGeometry relative="1" as="geometry">
            <mxPoint x="909.9999999999998" y="100" as="targetPoint" />
          </mxGeometry>
        </mxCell>
        <mxCell id="hFy0Fky4flLzkHBf1MpJ-29" value="删除原绑定关系" style="whiteSpace=wrap;html=1;" vertex="1" parent="WIyWlLk6GJQsqaUBKTNV-1">
          <mxGeometry x="775" y="80" width="90" height="40" as="geometry" />
        </mxCell>
      </root>
    </mxGraphModel>
  </diagram>
</mxfile>
